<?xml version="1.0" encoding="UTF-8"?>
<svg version="1.1" xmlns="http://www.w3.org/2000/svg" width="512" height="512">
<path d="M0 0 C1.81685951 -0.00543404 3.6337146 -0.01256382 5.45056152 -0.02124023 C10.33879776 -0.03931905 15.22669253 -0.03247196 20.11493397 -0.01972389 C25.25336874 -0.00952168 30.39177635 -0.01900889 35.5302124 -0.02526855 C44.15105383 -0.03252146 52.77175764 -0.02301666 61.39257812 -0.00390625 C71.33741194 0.01788558 81.28191797 0.0107848 91.22674394 -0.01121187 C99.79532865 -0.02940025 108.36381507 -0.03190824 116.93241286 -0.0214572 C122.03715241 -0.0152447 127.14173813 -0.01432513 132.24646759 -0.02760315 C137.04346984 -0.03921222 141.84005154 -0.03104407 146.63700867 -0.00802612 C148.39008132 -0.00276714 150.14318978 -0.00420426 151.89624786 -0.01307678 C165.65662817 -0.07626669 177.18504542 1.42077486 187.39746094 11.51757812 C197.16639126 22.99702154 197.84253452 33.98345264 197.80151367 48.37548828 C197.80722261 50.18497132 197.81418889 51.99445075 197.8223114 53.80392456 C197.84020606 58.70098904 197.83908064 63.59787395 197.83336902 68.49496126 C197.83026994 72.59480358 197.83637804 76.69461176 197.84240776 80.79444921 C197.85644105 90.47643923 197.85490337 100.15834101 197.84350586 109.84033203 C197.83204276 119.79744783 197.84607265 129.75429371 197.87290233 139.71137393 C197.89513133 148.28498648 197.90168005 156.85851476 197.89582592 165.43215406 C197.89247027 170.54159276 197.89477745 175.65085876 197.91207695 180.76027298 C197.92765769 185.57196394 197.92346837 190.3832589 197.9047718 195.19493484 C197.90111562 196.94955373 197.9041064 198.70420267 197.91465759 200.45879364 C197.99210306 214.41579357 196.28724454 227.19214282 189.70996094 239.76757812 C189.42185547 240.37085938 189.13375 240.97414062 188.83691406 241.59570312 C183.55228725 252.0130373 174.75060641 260.46097564 166.563797 268.6186676 C165.60451333 269.58169918 164.64565947 270.54515905 163.68719214 271.5090031 C161.08242936 274.12586986 158.47158725 276.73659263 155.8595804 279.3462261 C153.03175042 282.17364469 150.20967236 285.00679533 147.38677979 287.83914185 C141.86715252 293.37530944 136.34204876 298.9059792 130.81470487 304.43444151 C126.31847744 308.9316225 121.82383951 313.43038601 117.33029747 317.93025017 C104.56531675 330.71282235 91.79617387 343.49121564 79.02164296 356.26424373 C78.33443975 356.95136703 77.64723654 357.63849033 76.93920898 358.34643555 C76.2511576 359.03440517 75.56310622 359.72237479 74.8542048 360.43119197 C63.70453499 371.58004893 52.56487695 382.73885011 41.42972044 393.90220083 C29.97184772 405.38885375 18.50648002 416.86797879 7.0333454 428.33938831 C0.60190684 434.77016486 -5.82646061 441.20394164 -12.2467556 447.64584541 C-17.71244331 453.1298124 -23.18510689 458.60670048 -28.66669991 464.07477088 C-31.45830649 466.85988248 -34.2467061 469.64800377 -37.02631569 472.44509315 C-60.39500993 495.95123314 -81.92000129 512.73281078 -116.16503906 513.01757812 C-126.56673603 512.93809934 -135.78674029 512.04204278 -145.60253906 508.51757812 C-146.79621094 508.09347656 -147.98988281 507.669375 -149.21972656 507.23242188 C-173.05020438 497.87231079 -190.26091607 477.03045996 -207.99582839 459.32447743 C-209.7227334 457.60053405 -211.45021091 455.87716625 -213.17785072 454.15395927 C-218.60915889 448.73626063 -224.03850975 443.316612 -229.46496218 437.8940497 C-235.68264404 431.68085325 -241.90682741 425.474268 -248.13670844 419.27330405 C-252.98745221 414.44428127 -257.83231414 409.60940732 -262.67287523 404.77017778 C-265.54892787 401.89516435 -268.42726825 399.02254267 -271.31181908 396.15605354 C-274.02483728 393.45970148 -276.7303731 390.75604737 -279.43072319 388.04701042 C-280.87408746 386.60252849 -282.32479102 385.16539131 -283.77584839 383.7286377 C-292.31508522 375.1357776 -300.7790588 365.6355822 -305.97753906 354.58007812 C-306.29859619 353.91967529 -306.61965332 353.25927246 -306.95043945 352.57885742 C-316.34369268 332.57731516 -318.54708589 306.53483398 -311.34765625 285.46923828 C-308.95900618 279.21272823 -305.92712072 273.3215951 -302.60253906 267.51757812 C-302.11914062 266.66679687 -301.63574219 265.81601562 -301.13769531 264.93945312 C-291.97406943 250.17140678 -277.45339697 238.20655818 -265.24058318 225.98092043 C-262.47530964 223.21169678 -259.71285222 220.43966591 -256.94995117 217.66807556 C-250.30148998 210.99999557 -243.64831246 204.33663132 -236.9944976 197.6738942 C-234.48312702 195.15900639 -231.9720708 192.64380482 -229.4610304 190.12858734 C-218.37296813 179.02208316 -207.28356079 167.91692403 -196.19012642 156.81578541 C-193.48497702 154.10872656 -190.77983311 151.40166223 -188.07470703 148.69458008 C-187.40247742 148.02186672 -186.7302478 147.34915337 -186.03764759 146.65605476 C-175.1376876 135.74778642 -164.24628171 124.83101867 -153.35840179 113.91069416 C-142.15238978 102.67156441 -130.93881685 91.44002338 -119.71782959 80.21584433 C-113.42869922 73.92455478 -107.14286113 67.63005308 -100.86548233 61.3270359 C-95.52342099 55.9632042 -90.17450201 50.60632981 -84.8166994 45.25821976 C-82.08795928 42.53400407 -79.36246296 39.80674998 -76.6457634 37.07052231 C-53.69823416 13.96730499 -33.44215104 -0.17011734 0 0 Z " fill="#7D57C1" transform="translate(314.6025390625,-0.517578125)"/>
<path d="M0 0 C4.10391862 -0.1177595 8.20739356 -0.18776774 12.3125 -0.25 C13.46041016 -0.28351562 14.60832031 -0.31703125 15.79101562 -0.3515625 C26.65496688 -0.47466676 35.50923394 1.89080911 43.9296875 8.953125 C53.13542579 18.05464738 56.28667039 27.66309366 56.41012871 40.34940982 C56.4179938 42.85233437 56.41118668 45.3549867 56.40405273 47.85791016 C56.40976167 49.66739319 56.41672795 51.47687263 56.42485046 53.28634644 C56.44274512 58.18341091 56.4416197 63.08029582 56.43590808 67.97738314 C56.432809 72.07722545 56.4389171 76.17703364 56.44494683 80.27687109 C56.45898012 89.9588611 56.45744244 99.64076288 56.44604492 109.32275391 C56.43458182 119.27986971 56.44861171 129.23671559 56.4754414 139.1937958 C56.49767039 147.76740835 56.50421911 156.34093664 56.49836498 164.91457593 C56.49500933 170.02401464 56.49731651 175.13328063 56.51461601 180.24269485 C56.53019675 185.05438582 56.52600743 189.86568077 56.50731087 194.67735672 C56.50365468 196.4319756 56.50664546 198.18662455 56.51719666 199.94121552 C56.59464212 213.89821545 54.8897836 226.67456469 48.3125 239.25 C48.02439453 239.85328125 47.73628906 240.4565625 47.43945312 241.078125 C42.15482631 251.49545918 33.35314547 259.94339751 25.16633606 268.10108948 C24.20705239 269.06412106 23.24819853 270.02758092 22.2897312 270.99142498 C19.68496842 273.60829173 17.07412632 276.2190145 14.46211946 278.82864797 C11.63428948 281.65606656 8.81221142 284.4892172 5.98931885 287.32156372 C0.46969158 292.85773131 -5.05541218 298.38840107 -10.58275606 303.91686339 C-15.07898349 308.41404438 -19.57362142 312.91280788 -24.06716347 317.41267204 C-36.83214419 330.19524422 -49.60128707 342.97363751 -62.37581798 355.7466656 C-63.4066228 356.77735055 -63.4066228 356.77735055 -64.45825195 357.82885742 C-65.14630334 358.51682704 -65.83435472 359.20479666 -66.54325614 359.91361385 C-77.69292595 371.0624708 -88.83258398 382.22127198 -99.9677405 393.3846227 C-111.42561322 404.87127563 -122.89098092 416.35040067 -134.36411554 427.82181019 C-140.79555409 434.25258674 -147.22392155 440.68636351 -153.64421654 447.12826729 C-159.10990425 452.61223427 -164.58256783 458.08912236 -170.06416085 463.55719275 C-172.85576743 466.34230435 -175.64416704 469.13042564 -178.42377663 471.92751503 C-200.18294369 493.8146612 -221.50778897 511.99896636 -253.74633789 512.26586914 C-258.49989484 512.2431215 -263.24898394 512.15598739 -268 512 C-264.94746783 509.96497855 -263.8674404 509.7287816 -260.375 509.3125 C-231.47413443 504.37447131 -212.11619154 481.27050198 -192.43402421 461.59406698 C-189.66077556 458.82269022 -186.88468783 456.05415952 -184.10902405 453.28520203 C-178.06125976 447.25092856 -172.01719207 441.21296186 -165.97396064 435.17414927 C-162.19535172 431.39831524 -158.41601127 427.623214 -154.63654518 423.84823799 C-144.15411687 413.37798399 -133.67262273 402.90679681 -123.19458294 392.43215084 C-122.52614996 391.76393743 -121.85771698 391.09572401 -121.16902845 390.4072617 C-120.49910572 389.73755726 -119.829183 389.06785281 -119.13895959 388.37785429 C-117.7816875 387.02102565 -116.42441386 385.66419858 -115.06713867 384.30737305 C-114.05728171 383.29784823 -114.05728171 383.29784823 -113.02702359 382.26792897 C-102.10308293 371.34794167 -91.17239626 360.43473363 -80.23881044 349.52440434 C-68.99026019 338.29958643 -57.74736238 327.06913277 -46.51008922 315.83302504 C-40.20972854 309.53357938 -33.9069921 303.23655298 -27.59799767 296.9457531 C-22.23086762 291.59404859 -16.86893836 286.23720027 -11.51363888 280.87365621 C-8.7843731 278.14049436 -6.05278234 275.40977218 -3.31453323 272.68560791 C-0.34040284 269.72663594 2.62186233 266.75605521 5.58320618 263.7842865 C6.44176706 262.93378202 7.30032795 262.08327754 8.18490583 261.2070002 C25.06194998 244.19106508 33.61156387 223.21023617 33.65542603 199.32406616 C33.64252544 197.70879723 33.62911171 196.09353232 33.61523438 194.47827148 C33.61874812 192.71831225 33.62442068 190.95835624 33.63204956 189.19841003 C33.64611791 184.48392038 33.62942103 179.77002655 33.60576439 175.05559421 C33.58544619 170.09289861 33.59154523 165.13022274 33.59387207 160.16749573 C33.59381877 151.84878878 33.57421343 143.53031104 33.54199219 135.21166992 C33.50500186 125.61554066 33.49633451 116.01970987 33.5032897 106.4235186 C33.50960575 97.14953899 33.498827 87.87566084 33.47932434 78.60170174 C33.47118355 74.6717286 33.46843457 70.74180755 33.47001648 66.81182671 C33.4708989 62.18635343 33.45658356 57.56116142 33.43078995 52.93576241 C33.4236645 51.24516286 33.42152694 49.5545333 33.42490768 47.86392212 C33.44722551 34.06717963 31.98406753 21.94293839 22.40625 11.21484375 C16.18003639 5.47321752 8.47687936 1.55283996 0 1 C0 0.67 0 0.34 0 0 Z " fill="#673AB7" transform="translate(456,0)"/>
<path d="M0 0 C8.94417837 6.25921469 15.7026855 14.7984934 17.79296875 25.6796875 C18.79018565 39.42820252 16.38628914 48.90504991 7.79296875 59.6796875 C5.7771937 61.95663116 3.66464593 64.12153309 1.51904297 66.27587891 C0.62492958 67.18488701 0.62492958 67.18488701 -0.2872467 68.11225891 C-2.23681591 70.09074338 -4.19382488 72.06162681 -6.15234375 74.03125 C-6.82691494 74.71147594 -7.50148613 75.39170189 -8.19649887 76.09254074 C-11.76459067 79.69047994 -15.33829338 83.28272907 -18.91699219 86.87011719 C-22.58859367 90.55268504 -26.24126373 94.25344329 -29.88978767 97.95885658 C-32.72115211 100.82767656 -35.56604718 103.68279063 -38.41466904 106.53446579 C-39.76629858 107.892101 -41.1129831 109.25467992 -42.454319 110.62248611 C-54.04829713 122.42884295 -64.20254621 130.04079102 -81.35742188 130.20092773 C-91.62295407 129.95036371 -99.73908225 125.3150239 -107.26953125 118.4296875 C-115.72880037 109.24578825 -117.71027162 98.76044513 -117.48046875 86.73046875 C-116.74651429 71.02311657 -102.8541351 60.0026329 -92.49609375 49.6328125 C-91.15988165 48.29016037 -89.82381449 46.94736399 -88.48788452 45.60443115 C-85.69923184 42.80386436 -82.9065391 40.00739919 -80.11132812 37.21337891 C-76.54503301 33.64728745 -72.99272659 30.06760362 -69.44376564 26.484272 C-66.69327225 23.71146419 -63.93365787 20.94787241 -61.1714592 18.18672943 C-59.85822686 16.8711509 -58.5482037 15.55236017 -57.24159622 14.23020172 C-44.38061422 1.23045833 -44.38061422 1.23045833 -36.20703125 -2.3203125 C-35.56980133 -2.64183289 -34.93257141 -2.96335327 -34.27603149 -3.2946167 C-23.59766295 -8.5783017 -9.80602144 -5.86625708 0 0 Z " fill="#ECE6F5" transform="translate(439.20703125,60.3203125)"/>
<path d="M0 0 C8.94417837 6.25921469 15.7026855 14.7984934 17.79296875 25.6796875 C18.79018565 39.42820252 16.38628914 48.90504991 7.79296875 59.6796875 C5.7771937 61.95663116 3.66464593 64.12153309 1.51904297 66.27587891 C0.62492958 67.18488701 0.62492958 67.18488701 -0.2872467 68.11225891 C-2.23681591 70.09074338 -4.19382488 72.06162681 -6.15234375 74.03125 C-6.82691494 74.71147594 -7.50148613 75.39170189 -8.19649887 76.09254074 C-11.76459067 79.69047994 -15.33829338 83.28272907 -18.91699219 86.87011719 C-22.58859367 90.55268504 -26.24126373 94.25344329 -29.88978767 97.95885658 C-32.72115211 100.82767656 -35.56604718 103.68279063 -38.41466904 106.53446579 C-39.76629858 107.892101 -41.1129831 109.25467992 -42.454319 110.62248611 C-51.56267047 119.89768454 -61.29237683 129.69250509 -75.2109375 129.84765625 C-76.73043608 129.85955833 -78.24998659 129.86590518 -79.76953125 129.8671875 C-80.92098633 129.88555664 -80.92098633 129.88555664 -82.09570312 129.90429688 C-85.99120999 129.91448565 -87.89365115 129.88860756 -91.20703125 127.6796875 C-90.66175781 127.54433594 -90.11648438 127.40898437 -89.5546875 127.26953125 C-76.99638317 123.68451104 -68.35329962 113.15152101 -59.37890625 104.1875 C-58.05867418 102.87370833 -56.73829804 101.56006143 -55.41778564 100.24655151 C-52.66429793 97.50497637 -49.91491074 94.75936331 -47.16796875 92.01123047 C-43.66241004 88.5054681 -40.14326188 85.01369835 -36.62046432 81.52527046 C-33.89397817 78.8211014 -31.17671155 76.10780944 -28.46189117 73.39193344 C-27.16864143 72.10102946 -25.87218051 70.81333357 -24.57234955 69.52905655 C-14.98488853 60.15269001 -14.98488853 60.15269001 -8.20703125 48.6796875 C-7.88539001 48.01115753 -7.56374878 47.34262756 -7.23236084 46.65383911 C-3.35529035 38.38607879 -4.23199907 27.14404896 -7.20703125 18.6796875 C-11.98323312 9.24346165 -17.81474841 2.91456847 -27.41015625 -1.4609375 C-29.20703125 -2.3203125 -29.20703125 -2.3203125 -32.20703125 -4.3203125 C-21.47949292 -7.627298 -9.47352696 -5.66734887 0 0 Z " fill="#D0C3E8" transform="translate(439.20703125,60.3203125)"/>
</svg>
