<?xml version="1.0" encoding="UTF-8"?>
<svg version="1.1" xmlns="http://www.w3.org/2000/svg" width="512" height="512">
<path d="M0 0 C1.01790619 0.00215515 2.03581238 0.0043103 3.08456421 0.00653076 C17.69363523 0.05620146 32.02575853 0.30709809 46.375 3.3125 C47.34985352 3.51117676 48.32470703 3.70985352 49.32910156 3.91455078 C97.7109774 14.03517194 141.69928269 35.9516877 177.375 70.3125 C178.3640332 71.26068604 178.3640332 71.26068604 179.37304688 72.22802734 C188.86130305 81.37247479 197.6012044 90.66984009 205.375 101.3125 C206.23306152 102.46355017 207.09113451 103.61459177 207.94921875 104.765625 C213.98736829 112.95680614 219.34595521 121.47054105 224.375 130.3125 C224.73948242 130.94430176 225.10396484 131.57610352 225.47949219 132.22705078 C247.08534998 169.97532572 256.85198095 212.74189997 256.6875 255.9375 C256.68534485 256.95540619 256.6831897 257.97331238 256.68096924 259.02206421 C256.63129854 273.63113523 256.38040191 287.96325853 253.375 302.3125 C253.07698486 303.77478027 253.07698486 303.77478027 252.77294922 305.26660156 C242.65232806 353.6484774 220.7358123 397.63678269 186.375 433.3125 C185.74287598 433.97185547 185.11075195 434.63121094 184.45947266 435.31054688 C175.31502521 444.79880305 166.01765991 453.5387044 155.375 461.3125 C154.22394983 462.17056152 153.07290823 463.02863451 151.921875 463.88671875 C143.73224019 469.92427396 135.22961724 475.30707302 126.375 480.3125 C125.66778809 480.7146875 124.96057617 481.116875 124.23193359 481.53125 C101.09654164 494.5566741 75.92537591 503.30551461 49.9375 508.625 C49.21860596 508.77235596 48.49971191 508.91971191 47.7590332 509.0715332 C33.08339502 511.86090125 18.55831162 512.66142619 3.64770508 512.62817383 C0.70811513 512.6250221 -2.2304558 512.64854926 -5.16992188 512.67382812 C-18.54306192 512.71848737 -31.43916711 511.51301542 -44.625 509.3125 C-46.33055054 509.03031616 -46.33055054 509.03031616 -48.07055664 508.74243164 C-91.33802759 500.97044532 -132.38793216 480.98345309 -165.625 452.3125 C-166.37007813 451.67828125 -167.11515625 451.0440625 -167.8828125 450.390625 C-181.38779833 438.57948485 -194.05918743 425.82889772 -204.625 411.3125 C-205.48149066 410.16255169 -206.33826433 409.01281411 -207.1953125 407.86328125 C-213.23534209 399.67315742 -218.61867614 391.16870382 -223.625 382.3125 C-224.0271875 381.60528809 -224.429375 380.89807617 -224.84375 380.16943359 C-237.8691741 357.03404164 -246.61801461 331.86287591 -251.9375 305.875 C-252.08485596 305.15610596 -252.23221191 304.43721191 -252.3840332 303.6965332 C-255.35789088 288.05024391 -255.99800362 272.57681954 -255.9375 256.6875 C-255.93534485 255.66959381 -255.9331897 254.65168762 -255.93096924 253.60293579 C-255.88129854 238.99386477 -255.63040191 224.66174147 -252.625 210.3125 C-252.42632324 209.33764648 -252.22764648 208.36279297 -252.02294922 207.35839844 C-241.90232806 158.9765226 -219.9858123 114.98821731 -185.625 79.3125 C-184.99287598 78.65314453 -184.36075195 77.99378906 -183.70947266 77.31445312 C-174.56502521 67.82619695 -165.26765991 59.0862956 -154.625 51.3125 C-153.47394983 50.45443848 -152.32290823 49.59636549 -151.171875 48.73828125 C-142.98224019 42.70072604 -134.47961724 37.31792698 -125.625 32.3125 C-124.91778809 31.9103125 -124.21057617 31.508125 -123.48193359 31.09375 C-100.34654164 18.0683259 -75.17537591 9.31948539 -49.1875 4 C-48.46860596 3.85264404 -47.74971191 3.70528809 -47.0090332 3.5534668 C-31.36274391 0.57960912 -15.88931954 -0.06050362 0 0 Z M-46.609375 107.5625 C-47.3715332 107.83682861 -48.13369141 108.11115723 -48.91894531 108.39379883 C-49.72944336 108.69697021 -50.53994141 109.0001416 -51.375 109.3125 C-52.21901367 109.62791748 -53.06302734 109.94333496 -53.93261719 110.26831055 C-69.86850003 116.36029733 -98.51893138 128.10036275 -106.625 144.3125 C-100.86373425 149.10977443 -95.05273467 153.84707545 -89.125 158.4375 C-87.65546875 159.58605469 -87.65546875 159.58605469 -86.15625 160.7578125 C-84.90328125 161.52738281 -84.90328125 161.52738281 -83.625 162.3125 C-80.60748298 161.64597364 -80.60748298 161.64597364 -79.52514648 159.67700195 C-79.18555908 158.97534912 -78.84597168 158.27369629 -78.49609375 157.55078125 C-78.10607178 156.76823975 -77.7160498 155.98569824 -77.31420898 155.17944336 C-76.90114502 154.33647705 -76.48808105 153.49351074 -76.0625 152.625 C-67.87994839 136.53601828 -57.41808322 123.14264104 -43.7890625 111.22265625 C-41.99630383 109.6402393 -40.29056179 108.02641681 -38.625 106.3125 C-42.02114587 106.3125 -43.57582893 106.4704815 -46.609375 107.5625 Z M-45.64453125 127.17578125 C-57.07686728 138.84652376 -66.18374106 153.95794742 -71.625 169.3125 C-58.94363863 175.41317934 -46.30947667 180.00602151 -32.625 183.3125 C-31.89941895 183.49184082 -31.17383789 183.67118164 -30.42626953 183.85595703 C-9.98309431 188.69182206 12.98537249 188.08715649 33.375 183.3125 C34.64730469 183.02246094 35.91960937 182.73242188 37.23046875 182.43359375 C49.34449545 179.43333221 61.38217238 175.26694829 72.375 169.3125 C64.47602952 146.75886059 48.24835519 123.87361898 26.96484375 112.48828125 C0.25967747 99.82555602 -24.82786714 106.9595654 -45.64453125 127.17578125 Z M39.375 106.3125 C42.22540736 109.25198259 45.14782281 112.01383367 48.25 114.6875 C49.62758428 115.89288624 51.00266022 117.10114623 52.375 118.3125 C52.9421875 118.81136719 53.509375 119.31023437 54.09375 119.82421875 C64.10383803 129.19687193 70.90314827 141.52146874 77.36230469 153.46044922 C78.98953667 156.43638505 80.68327097 159.37283633 82.375 162.3125 C87.13319096 160.77440803 90.48744387 158.10039533 94.3125 155 C95.20485352 154.2894043 95.20485352 154.2894043 96.11523438 153.56445312 C99.9115216 150.53157229 103.65115711 147.43370572 107.375 144.3125 C93.89241552 127.21142778 71.33799302 116.0214818 51.125 108.8125 C50.40989258 108.55710449 49.69478516 108.30170898 48.95800781 108.03857422 C45.5457542 106.8741529 43.02362447 106.3125 39.375 106.3125 Z M-115.625 152.3125 C-134.93780482 174.00858712 -147.44005599 199.89396823 -153.0625 228.375 C-153.3085498 229.60416138 -153.3085498 229.60416138 -153.55957031 230.8581543 C-154.76970359 237.58630584 -154.625 243.22361897 -154.625 250.3125 C-136.475 250.3125 -118.325 250.3125 -99.625 250.3125 C-99.25375 245.630625 -98.8825 240.94875 -98.5 236.125 C-97.50050031 224.78504077 -96.01673026 213.7109964 -93.6875 202.5625 C-93.32664307 200.82770386 -93.32664307 200.82770386 -92.95849609 199.05786133 C-91.51769663 192.48917338 -89.68120007 186.24968412 -87.29467773 179.95996094 C-86.53416458 176.9533971 -86.64250619 175.2403253 -87.625 172.3125 C-90.21333267 170.04867617 -90.21333267 170.04867617 -93.5 168.0625 C-94.68632889 167.28933686 -95.86987614 166.5118909 -97.05078125 165.73046875 C-97.64842285 165.33520996 -98.24606445 164.93995117 -98.86181641 164.53271484 C-102.53570235 161.9901945 -105.88771455 159.05692233 -109.28515625 156.16015625 C-111.35130256 154.52862502 -113.22724435 153.3701705 -115.625 152.3125 Z M110.3125 156.0625 C103.24481321 162.58892065 95.30162238 167.89141917 87.375 173.3125 C87.97302701 178.39901541 89.13035924 183.05725006 90.6875 187.9375 C96.87100219 208.41838925 98.56743478 229.07360866 100.375 250.3125 C118.525 250.3125 136.675 250.3125 155.375 250.3125 C155.54068643 241.10434703 155.54068643 241.10434703 154.52734375 232.33984375 C154.33809326 231.34782959 154.14884277 230.35581543 153.95385742 229.33374023 C153.74220947 228.31610596 153.53056152 227.29847168 153.3125 226.25 C153.08989502 225.16726807 152.86729004 224.08453613 152.63793945 222.96899414 C147.10376435 197.36612271 134.71949443 171.32909875 116.375 152.3125 C113.3700946 152.3125 112.45087176 153.99381789 110.3125 156.0625 Z M-76.625 180.3125 C-80.51943892 192.97106832 -83.97735922 205.58370537 -86 218.6875 C-86.15500977 219.66960449 -86.31001953 220.65170898 -86.46972656 221.66357422 C-87.84692855 231.25222538 -88.11007853 240.52899207 -88.625 250.3125 C-29.885 250.3125 28.855 250.3125 89.375 250.3125 C87.62663113 225.83533577 84.83667435 203.39606278 77.375 180.3125 C73.28318569 180.87717038 69.85141479 182.31783674 66.09619141 183.94091797 C26.37034846 200.96627923 -19.95923264 201.99866841 -60.24365234 186.08251953 C-63.3886843 184.78867358 -66.51347353 183.4530972 -69.61816406 182.06518555 C-71.92497001 181.199993 -74.20241438 180.74052516 -76.625 180.3125 Z M-154.625 262.3125 C-154.79068643 271.52065297 -154.79068643 271.52065297 -153.77734375 280.28515625 C-153.58809326 281.27717041 -153.39884277 282.26918457 -153.20385742 283.29125977 C-152.99220947 284.30889404 -152.78056152 285.32652832 -152.5625 286.375 C-152.33989502 287.45773193 -152.11729004 288.54046387 -151.88793945 289.65600586 C-146.13037135 316.29236506 -133.31844188 339.75562671 -115.625 360.3125 C-111.91690775 358.7158391 -109.22547991 356.38401515 -106.1875 353.75 C-99.98454498 348.45074799 -93.40401011 343.83912933 -86.625 339.3125 C-87.22302701 334.22598459 -88.38035924 329.56774994 -89.9375 324.6875 C-96.12100219 304.20661075 -97.81743478 283.55139134 -99.625 262.3125 C-117.775 262.3125 -135.925 262.3125 -154.625 262.3125 Z M-88.625 262.3125 C-86.87663113 286.78966423 -84.08667435 309.22893722 -76.625 332.3125 C-72.53318569 331.74782962 -69.10141479 330.30716326 -65.34619141 328.68408203 C-25.62034846 311.65872077 20.70923264 310.62633159 60.99365234 326.54248047 C64.1386843 327.83632642 67.26347353 329.1719028 70.36816406 330.55981445 C72.67497001 331.425007 74.95241438 331.88447484 77.375 332.3125 C81.26943892 319.65393168 84.72735922 307.04129463 86.75 293.9375 C86.90500977 292.95539551 87.06001953 291.97329102 87.21972656 290.96142578 C88.59692855 281.37277462 88.86007853 272.09600793 89.375 262.3125 C30.635 262.3125 -28.105 262.3125 -88.625 262.3125 Z M100.375 262.3125 C99.7871875 269.4590625 99.7871875 269.4590625 99.1875 276.75 C97.48742574 295.683041 94.63230504 314.24121768 88.1953125 332.203125 C87.30971061 335.55997787 87.01379058 337.12216542 88.375 340.3125 C90.96333267 342.57632383 90.96333267 342.57632383 94.25 344.5625 C95.43632889 345.33566314 96.61987614 346.1131091 97.80078125 346.89453125 C98.39842285 347.28979004 98.99606445 347.68504883 99.61181641 348.09228516 C103.28570235 350.6348055 106.63771455 353.56807767 110.03515625 356.46484375 C112.10130256 358.09637498 113.97724435 359.2548295 116.375 360.3125 C124.73060594 351.06877109 131.22611387 341.12537905 137.375 330.3125 C137.72191895 329.70680176 138.06883789 329.10110352 138.42626953 328.47705078 C146.124191 314.80544756 150.79238103 299.58708506 153.8125 284.25 C153.97645264 283.43072021 154.14040527 282.61144043 154.30932617 281.76733398 C155.51990905 275.03909165 155.375 269.40148262 155.375 262.3125 C137.225 262.3125 119.075 262.3125 100.375 262.3125 Z M-71.625 343.3125 C-63.02788499 368.32228912 -45.47634042 390.61184244 -21.625 402.3125 C-7.59946608 408.28154641 6.22082392 408.72214147 20.5 403.125 C45.58361408 391.78628352 62.07738212 369.20272212 72.375 344.3125 C35.98000146 312.38010346 -32.6955019 324.58451191 -71.625 343.3125 Z M-89.0625 354.25 C-89.58875977 354.64952881 -90.11501953 355.04905762 -90.65722656 355.46069336 C-96.08815177 359.6117035 -101.37227556 363.9386763 -106.625 368.3125 C-93.12352275 385.43753548 -70.57023952 396.55063956 -50.375 403.875 C-49.65989258 404.13877441 -48.94478516 404.40254883 -48.20800781 404.67431641 C-43.42482037 406.35001724 -43.42482037 406.35001724 -38.625 405.3125 C-39.23085937 404.85101563 -39.83671875 404.38953125 -40.4609375 403.9140625 C-56.56159752 391.38031793 -67.01170314 376.91011802 -76.61230469 359.16455078 C-78.23953667 356.18861495 -79.93327097 353.25216367 -81.625 350.3125 C-84.82767601 350.3125 -86.5537267 352.34150536 -89.0625 354.25 Z M82.375 350.3125 C81.95371826 351.11131592 81.95371826 351.11131592 81.52392578 351.92626953 C71.50943821 370.80550837 60.77309846 387.20400436 44.5390625 401.40234375 C42.74630383 402.9847607 41.04056179 404.59858319 39.375 406.3125 C44.4742888 405.74153716 49.01352961 404.59617444 53.8125 402.75 C54.50206787 402.48606445 55.19163574 402.22212891 55.90209961 401.95019531 C71.50184713 395.82848425 99.44379829 384.17490343 107.375 368.3125 C101.60741637 363.50996481 95.79019771 358.78818171 89.8125 354.25 C88.82121094 353.49589844 87.82992187 352.74179687 86.80859375 351.96484375 C84.58948173 350.12525709 84.58948173 350.12525709 82.375 350.3125 Z " fill="#6B26B3" transform="translate(255.625,-0.3125)"/>
</svg>
